<svg width="30" height="26" viewBox="0 0 30 26" fill="none" xmlns="http://www.w3.org/2000/svg">
<path d="M9.42375 25.1251C20.745 25.1251 26.9381 15.7445 26.9381 7.62383C26.9381 7.36133 26.9381 7.09508 26.9269 6.83258C28.1326 5.95974 29.1732 4.87911 30 3.64133C28.8737 4.13792 27.6802 4.46521 26.4581 4.61258C27.7454 3.84315 28.7095 2.63252 29.1712 1.2057C27.9619 1.92219 26.6382 2.42515 25.2581 2.69258C24.3303 1.7045 23.1026 1.04992 21.7652 0.830249C20.4277 0.610574 19.0551 0.838057 17.86 1.47746C16.6649 2.11687 15.714 3.13251 15.1546 4.36707C14.5952 5.60163 14.4585 6.9862 14.7656 8.30633C12.3183 8.18361 9.92403 7.54783 7.7382 6.44022C5.55238 5.33261 3.62378 3.77791 2.0775 1.87695C1.29251 3.23273 1.05295 4.83645 1.40746 6.36245C1.76197 7.88845 2.68398 9.22232 3.98625 10.0932C3.01039 10.06 2.05598 9.798 1.2 9.3282V9.41258C1.20168 10.8329 1.6937 12.209 2.59289 13.3084C3.49208 14.4078 4.74328 15.163 6.135 15.4463C5.60674 15.5919 5.06106 15.6644 4.51312 15.662C4.12684 15.6631 3.74134 15.6273 3.36188 15.5551C3.75523 16.7777 4.52114 17.8466 5.55234 18.6122C6.58354 19.3778 7.82838 19.8017 9.1125 19.8245C6.93104 21.5378 4.23638 22.4671 1.4625 22.4626C0.973726 22.4646 0.485293 22.4365 0 22.3782C2.81534 24.1731 6.08493 25.1261 9.42375 25.1251Z" fill="white"/>
</svg>
