<svg width="141" height="33" viewBox="0 0 141 33" fill="none" xmlns="http://www.w3.org/2000/svg">
<path d="M20.7295 10.7354C21.3317 10.1657 21.9502 9.88086 22.585 9.88086C23.3011 9.88086 23.887 10.1413 24.3428 10.6621C24.8148 11.1667 25.0508 12.013 25.0508 13.2012V16.4238C25.0508 17.6283 24.8148 18.4827 24.3428 18.9873C23.887 19.4919 23.2848 19.7441 22.5361 19.7441C21.8525 19.7441 21.2747 19.5488 20.8027 19.1582C20.4609 18.8652 20.1924 18.2712 19.9971 17.376C19.8018 16.4645 19.3298 15.7891 18.5811 15.3496C17.2627 14.5684 15.5781 14.1777 13.5273 14.1777C11.1673 14.1777 9.27116 14.8695 7.83887 16.2529C6.42285 17.6364 5.71484 19.3861 5.71484 21.502C5.71484 23.4551 6.39844 25.0013 7.76562 26.1406C9.13281 27.2637 11.4033 27.8252 14.5771 27.8252C16.6605 27.8252 18.3613 27.6136 19.6797 27.1904C20.4609 26.93 21.2015 26.4906 21.9014 25.8721C22.6012 25.2373 23.236 24.9199 23.8057 24.9199C24.4893 24.9199 25.0752 25.1722 25.5635 25.6768C26.068 26.1813 26.3203 26.7754 26.3203 27.459C26.3203 28.5658 25.5635 29.6156 24.0498 30.6084C21.8037 32.0895 18.516 32.8301 14.1865 32.8301C10.2965 32.8301 7.26921 32.0244 5.10449 30.4131C2.1748 28.2484 0.709961 25.2861 0.709961 21.5264C0.709961 17.9619 1.89811 15.016 4.27441 12.6885C6.65072 10.3447 9.7513 9.17285 13.5762 9.17285C14.9596 9.17285 16.2454 9.30306 17.4336 9.56348C18.6217 9.82389 19.7204 10.2145 20.7295 10.7354Z" fill="#110144"/>
<path d="M46.4609 0.334961V26.9951H52.4668C53.6712 26.9951 54.5257 27.2311 55.0303 27.7031C55.5511 28.1589 55.8115 28.7611 55.8115 29.5098C55.8115 30.2422 55.5511 30.8444 55.0303 31.3164C54.5257 31.7721 53.6712 32 52.4668 32H35.4502C34.2458 32 33.3831 31.7721 32.8623 31.3164C32.3577 30.8444 32.1055 30.234 32.1055 29.4854C32.1055 28.7529 32.3577 28.1589 32.8623 27.7031C33.3831 27.2311 34.2458 26.9951 35.4502 26.9951H41.4561V5.33984H37.4277C36.2396 5.33984 35.3851 5.11198 34.8643 4.65625C34.3434 4.18424 34.083 3.57389 34.083 2.8252C34.083 2.09277 34.3353 1.4987 34.8398 1.04297C35.3607 0.570964 36.2233 0.334961 37.4277 0.334961H46.4609Z" fill="#110144"/>
<path d="M85.6201 9.83203V26.9951C86.6781 26.9951 87.4593 27.2311 87.9639 27.7031C88.4684 28.1751 88.7207 28.7773 88.7207 29.5098C88.7207 30.2422 88.4603 30.8444 87.9395 31.3164C87.4349 31.7721 86.5804 32 85.376 32H80.6152V30.8525C79.1829 31.5036 77.8158 31.9919 76.5137 32.3174C75.2116 32.6429 73.9746 32.8057 72.8027 32.8057C71.1589 32.8057 69.7347 32.4639 68.5303 31.7803C67.3258 31.0804 66.3737 30.1201 65.6738 28.8994C65.1693 28.0205 64.917 26.9219 64.917 25.6035V14.8369H64.0625C62.8581 14.8369 61.9954 14.609 61.4746 14.1533C60.9701 13.6813 60.7178 13.071 60.7178 12.3223C60.7178 11.5898 60.9701 10.9958 61.4746 10.54C61.9954 10.068 62.8581 9.83203 64.0625 9.83203H69.9219V24.7246C69.9219 25.7826 70.1742 26.5638 70.6787 27.0684C71.1995 27.5566 71.9889 27.8008 73.0469 27.8008C74.056 27.8008 75.1383 27.6055 76.2939 27.2148C77.4658 26.8079 78.9062 26.0837 80.6152 25.042V14.8369H78.8086C77.6042 14.8369 76.7415 14.609 76.2207 14.1533C75.7161 13.6813 75.4639 13.071 75.4639 12.3223C75.4639 11.5898 75.7161 10.9958 76.2207 10.54C76.7415 10.068 77.6042 9.83203 78.8086 9.83203H85.6201Z" fill="#110144"/>
<path d="M99.7061 0.334961V11.5654C100.927 10.7679 102.164 10.1738 103.417 9.7832C104.687 9.3763 105.964 9.17285 107.25 9.17285C110.717 9.17285 113.655 10.3691 116.063 12.7617C118.472 15.1543 119.677 18.0433 119.677 21.4287C119.677 24.6676 118.529 27.3776 116.234 29.5586C113.939 31.7233 110.912 32.8057 107.152 32.8057C105.818 32.8057 104.532 32.6348 103.295 32.293C102.058 31.9512 100.862 31.4466 99.7061 30.7793V32H93.8467C92.6423 32 91.7796 31.7721 91.2588 31.3164C90.7542 30.8444 90.502 30.234 90.502 29.4854C90.502 28.7529 90.7624 28.1589 91.2832 27.7031C91.804 27.2311 92.6585 26.9951 93.8467 26.9951H94.7012V5.33984H93.8467C92.6423 5.33984 91.7796 5.11198 91.2588 4.65625C90.7542 4.18424 90.502 3.57389 90.502 2.8252C90.502 2.09277 90.7542 1.4987 91.2588 1.04297C91.7796 0.570964 92.6423 0.334961 93.8467 0.334961H99.7061ZM114.672 21.5752C114.672 19.5081 113.948 17.7585 112.499 16.3262C111.05 14.8939 109.276 14.1777 107.177 14.1777C105.093 14.1777 103.327 14.8939 101.879 16.3262C100.43 17.7585 99.7061 19.4837 99.7061 21.502C99.7061 23.3411 100.357 24.8548 101.659 26.043C102.961 27.2148 104.8 27.8008 107.177 27.8008C109.553 27.8008 111.392 27.2148 112.694 26.043C114.013 24.8548 114.672 23.3656 114.672 21.5752Z" fill="#110144"/>
<path d="M140.867 29.4854C140.867 30.4294 140.534 31.2188 139.866 31.8535C139.199 32.4883 138.279 32.8057 137.107 32.8057C135.936 32.8057 135.016 32.4883 134.349 31.8535C133.681 31.2188 133.348 30.4294 133.348 29.4854C133.348 28.5413 133.681 27.752 134.349 27.1172C135.016 26.4824 135.936 26.165 137.107 26.165C138.279 26.165 139.199 26.4824 139.866 27.1172C140.534 27.752 140.867 28.5413 140.867 29.4854Z" fill="#110144"/>
</svg>
