<svg width="141" height="33" viewBox="0 0 141 33" fill="none" xmlns="http://www.w3.org/2000/svg">
<path d="M20.4534 10.7354C21.0556 10.1657 21.6741 9.88086 22.3088 9.88086C23.025 9.88086 23.6109 10.1413 24.0667 10.6621C24.5387 11.1667 24.7747 12.013 24.7747 13.2012V16.4238C24.7747 17.6283 24.5387 18.4827 24.0667 18.9873C23.6109 19.4919 23.0087 19.7441 22.26 19.7441C21.5764 19.7441 20.9986 19.5488 20.5266 19.1582C20.1848 18.8652 19.9163 18.2712 19.7209 17.376C19.5256 16.4645 19.0536 15.7891 18.3049 15.3496C16.9866 14.5684 15.302 14.1777 13.2512 14.1777C10.8912 14.1777 8.99504 14.8695 7.56274 16.2529C6.14673 17.6364 5.43872 19.3861 5.43872 21.502C5.43872 23.4551 6.12231 25.0013 7.4895 26.1406C8.85669 27.2637 11.1272 27.8252 14.301 27.8252C16.3844 27.8252 18.0852 27.6136 19.4036 27.1904C20.1848 26.93 20.9254 26.4906 21.6252 25.8721C22.3251 25.2373 22.9599 24.9199 23.5295 24.9199C24.2131 24.9199 24.7991 25.1722 25.2874 25.6768C25.7919 26.1813 26.0442 26.7754 26.0442 27.459C26.0442 28.5658 25.2874 29.6156 23.7737 30.6084C21.5276 32.0895 18.2398 32.8301 13.9104 32.8301C10.0204 32.8301 6.99308 32.0244 4.82837 30.4131C1.89868 28.2484 0.433838 25.2861 0.433838 21.5264C0.433838 17.9619 1.62199 15.016 3.99829 12.6885C6.37459 10.3447 9.47518 9.17285 13.3 9.17285C14.6835 9.17285 15.9693 9.30306 17.1575 9.56348C18.3456 9.82389 19.4443 10.2145 20.4534 10.7354Z" fill="white"/>
<path d="M46.1848 0.334961V26.9951H52.1907C53.3951 26.9951 54.2496 27.2311 54.7542 27.7031C55.275 28.1589 55.5354 28.7611 55.5354 29.5098C55.5354 30.2422 55.275 30.8444 54.7542 31.3164C54.2496 31.7721 53.3951 32 52.1907 32H35.1741C33.9696 32 33.107 31.7721 32.5862 31.3164C32.0816 30.8444 31.8293 30.234 31.8293 29.4854C31.8293 28.7529 32.0816 28.1589 32.5862 27.7031C33.107 27.2311 33.9696 26.9951 35.1741 26.9951H41.1799V5.33984H37.1516C35.9635 5.33984 35.109 5.11198 34.5881 4.65625C34.0673 4.18424 33.8069 3.57389 33.8069 2.8252C33.8069 2.09277 34.0592 1.4987 34.5637 1.04297C35.0846 0.570964 35.9472 0.334961 37.1516 0.334961H46.1848Z" fill="white"/>
<path d="M85.344 9.83203V26.9951C86.4019 26.9951 87.1832 27.2311 87.6877 27.7031C88.1923 28.1751 88.4446 28.7773 88.4446 29.5098C88.4446 30.2422 88.1842 30.8444 87.6633 31.3164C87.1588 31.7721 86.3043 32 85.0999 32H80.3391V30.8525C78.9068 31.5036 77.5396 31.9919 76.2375 32.3174C74.9355 32.6429 73.6985 32.8057 72.5266 32.8057C70.8827 32.8057 69.4586 32.4639 68.2542 31.7803C67.0497 31.0804 66.0976 30.1201 65.3977 28.8994C64.8931 28.0205 64.6409 26.9219 64.6409 25.6035V14.8369H63.7864C62.5819 14.8369 61.7193 14.609 61.1985 14.1533C60.6939 13.6813 60.4417 13.071 60.4417 12.3223C60.4417 11.5898 60.6939 10.9958 61.1985 10.54C61.7193 10.068 62.5819 9.83203 63.7864 9.83203H69.6458V24.7246C69.6458 25.7826 69.898 26.5638 70.4026 27.0684C70.9234 27.5566 71.7128 27.8008 72.7708 27.8008C73.7799 27.8008 74.8622 27.6055 76.0178 27.2148C77.1897 26.8079 78.6301 26.0837 80.3391 25.042V14.8369H78.5325C77.328 14.8369 76.4654 14.609 75.9446 14.1533C75.44 13.6813 75.1877 13.071 75.1877 12.3223C75.1877 11.5898 75.44 10.9958 75.9446 10.54C76.4654 10.068 77.328 9.83203 78.5325 9.83203H85.344Z" fill="white"/>
<path d="M99.4299 0.334961V11.5654C100.651 10.7679 101.888 10.1738 103.141 9.7832C104.41 9.3763 105.688 9.17285 106.974 9.17285C110.441 9.17285 113.378 10.3691 115.787 12.7617C118.196 15.1543 119.401 18.0433 119.401 21.4287C119.401 24.6676 118.253 27.3776 115.958 29.5586C113.663 31.7233 110.636 32.8057 106.876 32.8057C105.542 32.8057 104.256 32.6348 103.019 32.293C101.782 31.9512 100.586 31.4466 99.4299 30.7793V32H93.5706C92.3661 32 91.5035 31.7721 90.9827 31.3164C90.4781 30.8444 90.2258 30.234 90.2258 29.4854C90.2258 28.7529 90.4862 28.1589 91.0071 27.7031C91.5279 27.2311 92.3824 26.9951 93.5706 26.9951H94.425V5.33984H93.5706C92.3661 5.33984 91.5035 5.11198 90.9827 4.65625C90.4781 4.18424 90.2258 3.57389 90.2258 2.8252C90.2258 2.09277 90.4781 1.4987 90.9827 1.04297C91.5035 0.570964 92.3661 0.334961 93.5706 0.334961H99.4299ZM114.396 21.5752C114.396 19.5081 113.671 17.7585 112.223 16.3262C110.774 14.8939 109 14.1777 106.901 14.1777C104.817 14.1777 103.051 14.8939 101.603 16.3262C100.154 17.7585 99.4299 19.4837 99.4299 21.502C99.4299 23.3411 100.081 24.8548 101.383 26.043C102.685 27.2148 104.524 27.8008 106.901 27.8008C109.277 27.8008 111.116 27.2148 112.418 26.043C113.737 24.8548 114.396 23.3656 114.396 21.5752Z" fill="white"/>
<path d="M140.591 29.4854C140.591 30.4294 140.257 31.2188 139.59 31.8535C138.923 32.4883 138.003 32.8057 136.831 32.8057C135.659 32.8057 134.74 32.4883 134.073 31.8535C133.405 31.2188 133.072 30.4294 133.072 29.4854C133.072 28.5413 133.405 27.752 134.073 27.1172C134.74 26.4824 135.659 26.165 136.831 26.165C138.003 26.165 138.923 26.4824 139.59 27.1172C140.257 27.752 140.591 28.5413 140.591 29.4854Z" fill="white"/>
</svg>
