<svg width="41" height="40" viewBox="0 0 41 40" fill="none" xmlns="http://www.w3.org/2000/svg">
<g clip-path="url(#clip0_43_88)">
<path d="M30.089 25.86C32.5702 22.5567 33.6816 18.4612 33.2006 14.3929C32.7197 10.3245 30.682 6.58335 27.4951 3.91783C24.3083 1.25231 20.2073 -0.140984 16.0127 0.0166989C11.8182 0.174382 7.83926 1.87141 4.8721 4.76828C1.90494 7.66514 0.168333 11.5482 0.00970948 15.6406C-0.148914 19.733 1.28215 23.7329 4.01659 26.8401C6.75103 29.9473 10.5872 31.9327 14.7576 32.399C18.928 32.8653 23.1251 31.7781 26.5092 29.355H26.5066C26.5835 29.455 26.6655 29.55 26.7577 29.6425L36.6234 39.2675C37.1038 39.7366 37.7557 40.0003 38.4354 40.0005C39.1152 40.0007 39.7672 39.7375 40.248 39.2688C40.7288 38.8 40.9991 38.1641 40.9993 37.5009C40.9996 36.8377 40.7298 36.2016 40.2493 35.7325L30.3837 26.1075C30.292 26.017 30.1935 25.936 30.089 25.86ZM30.7501 16.25C30.7501 18.0557 30.3856 19.8437 29.6773 21.5119C28.969 23.1801 27.9309 24.6959 26.6221 25.9727C25.3134 27.2495 23.7597 28.2623 22.0498 28.9534C20.3399 29.6444 18.5072 30 16.6564 30C14.8055 30 12.9728 29.6444 11.2629 28.9534C9.55298 28.2623 7.99929 27.2495 6.69057 25.9727C5.38184 24.6959 4.3437 23.1801 3.63543 21.5119C2.92715 19.8437 2.5626 18.0557 2.5626 16.25C2.5626 12.6033 4.04748 9.10591 6.69057 6.52729C9.33366 3.94866 12.9185 2.50001 16.6564 2.50001C20.3942 2.50001 23.979 3.94866 26.6221 6.52729C29.2652 9.10591 30.7501 12.6033 30.7501 16.25Z" fill="#110144"/>
</g>
<defs>
<clipPath id="clip0_43_88">
<rect width="41" height="40" fill="white"/>
</clipPath>
</defs>
</svg>
